<svg width="20" height="16" viewBox="0 0 20 16" fill="none" xmlns="http://www.w3.org/2000/svg">
<path d="M18.0471 0.0196078L9.99608 0.0392157L1.9451 0H1.94118C0.858824 0 0 1.01569 0 2.28627V12.9294C0 14.2 0.858824 15.2157 1.94118 15.2157H18.0588C19.1412 15.2157 20 14.2 20 12.9294V2.28627C20 1.01569 19.149 0.0196078 18.0471 0.0196078ZM17.4157 1.58824L10.2235 8.16471L10.1961 8.18823L10.1725 8.21569C10.0863 8.3098 9.98431 8.32157 9.92941 8.32157C9.87451 8.32157 9.77255 8.30588 9.6902 8.20784L9.66667 8.18039L2.79216 1.55686L9.99608 1.60392L17.4157 1.58824ZM18.0588 13.6471H1.94118C1.80392 13.6471 1.56863 13.3882 1.56863 12.9294V2.53725L8.53333 9.26667C8.88628 9.65882 9.38431 9.88627 9.91373 9.89412H9.93726C10.4588 9.89412 10.9451 9.67843 11.302 9.30196L18.4392 2.76863V12.9294C18.4314 13.3882 18.1961 13.6471 18.0588 13.6471Z" fill="#007BFF"/>
</svg>
