<svg width="23" height="21" viewBox="0 0 23 21" fill="none" xmlns="http://www.w3.org/2000/svg">
<path d="M10.1251 5.74777C10.4002 3.40202 6.91126 1.30642 6.76317 1.2194C6.62513 1.13652 6.46126 1.07882 6.29391 1.05417C1.81395 0.369484 0.744229 1.78519 0.700663 1.84426C0.640824 1.92679 0.621425 2.0246 0.644636 2.12675C3.21764 13.572 13.543 18.2606 16.937 19.8021C17.1983 19.9209 17.4142 20.0179 17.5765 20.0976C17.7617 20.1885 17.9763 20.2362 18.1773 20.2311C18.2941 20.2285 21.0597 20.1417 22.3308 17.8388C22.3867 17.7384 22.3878 17.6207 22.3338 17.5029C22.2955 17.4203 21.3685 15.472 17.7899 13.9362C17.6688 13.8831 17.5366 13.8479 17.4048 13.8336C17.2729 13.8194 17.1454 13.8266 17.0331 13.8545C15.6941 14.1756 13.896 14.421 13.1773 14.3074C8.85473 11.6479 6.94977 8.21014 6.98702 7.66198C7.00586 7.35329 8.3512 6.60251 9.80788 6.08652C9.89945 6.05402 9.97498 6.00709 10.0296 5.94875C10.0842 5.8904 10.1167 5.82194 10.1251 5.74777Z" fill="#007BFF"/>
</svg>
